<svg xmlns="http://www.w3.org/2000/svg" version="1.1" xmlns:xlink="http://www.w3.org/1999/xlink" xmlns:svgjs="http://svgjs.com/svgjs" width="1440" height="560" preserveAspectRatio="none" viewBox="0 0 1440 560"><g mask="url(&quot;#SvgjsMask1001&quot;)" fill="none"><path d="M1512 560L0 560 L0 346.88Q56.57 283.45, 120 340.03Q174.52 322.55, 192 377.07Q220.99 286.06, 312 315.05Q384.33 267.38, 432 339.72Q505.07 292.79, 552 365.86Q574.74 268.6, 672 291.33Q717.83 265.16, 744 310.99Q816.84 263.83, 864 336.66Q871.82 272.48, 936 280.3Q979.1 251.4, 1008 294.5Q1074.24 288.74, 1080 354.98Q1124.32 279.3, 1200 323.62Q1259.57 311.19, 1272 370.76Q1319.86 298.62, 1392 346.47Q1432.65 267.13, 1512 307.78z" fill="#182f5d"></path><path d="M1512 560L0 560 L0 374.07Q54.82 308.89, 120 363.71Q199.7 323.41, 240 403.11Q290.85 381.96, 312 432.81Q322.69 371.5, 384 382.19Q404.67 330.86, 456 351.52Q541.01 316.53, 576 401.54Q628.95 334.49, 696 387.44Q778.88 350.31, 816 433.19Q881.26 378.45, 936 443.71Q959.36 347.07, 1056 370.43Q1109.32 303.75, 1176 357.06Q1238.59 347.65, 1248 410.24Q1299.87 390.11, 1320 441.98Q1325.61 375.59, 1392 381.2Q1457.55 326.75, 1512 392.29z" fill="#25467d"></path><path d="M1464 560L0 560 L0 454.34Q47.11 429.44, 72 476.55Q84.27 416.82, 144 429.09Q185.86 398.95, 216 440.81Q279.91 432.72, 288 496.63Q353.53 442.16, 408 507.7Q419.75 447.45, 480 459.21Q506.74 413.95, 552 440.69Q579.59 396.28, 624 423.87Q681.33 409.19, 696 466.52Q720.95 419.47, 768 444.42Q859.01 415.44, 888 506.45Q901.65 448.11, 960 461.76Q980.97 410.73, 1032 431.69Q1073.06 400.75, 1104 441.8Q1200.91 418.72, 1224 515.63Q1256.03 427.65, 1344 459.68Q1387.14 382.82, 1464 425.96z" fill="#356cb1"></path><path d="M1536 560L0 560 L0 586.12Q7.2 521.32, 72 528.52Q121.18 457.7, 192 506.89Q257.19 452.08, 312 517.27Q381.44 466.71, 432 536.15Q472.54 456.69, 552 497.23Q645.93 471.16, 672 565.1Q706.88 479.98, 792 514.85Q843.65 494.5, 864 546.16Q890.79 500.95, 936 527.74Q980.94 452.68, 1056 497.62Q1148.94 470.56, 1176 563.5Q1210.91 478.41, 1296 513.33Q1368.52 465.85, 1416 538.37Q1489.23 491.6, 1536 564.83z" fill="white"></path></g><defs><mask id="SvgjsMask1001"><rect width="1440" height="560" fill="#ffffff"></rect></mask></defs></svg>